<svg xmlns="http://www.w3.org/2000/svg" width="14" height="568" fill="none" viewBox="0 0 14 568"><g id="column-6"><path id="L11" fill="#D1031A" fill-rule="evenodd" d="M13.9893 392L14 392.005V407.995L13.9904 408L0 400.005V399.995L13.9893 392Z" clip-rule="evenodd"/><path id="L12" fill="#D1031A" fill-rule="evenodd" d="M13.9893 376L14 376.005V391.995L13.9904 392L0 384.005V383.995L13.9893 376Z" clip-rule="evenodd"/><path id="L13" fill="#D1031A" fill-rule="evenodd" d="M13.9893 360L14 360.005V375.995L13.9904 376L0 368.005V367.995L13.9893 360Z" clip-rule="evenodd"/><path id="L14" fill="#D1031A" fill-rule="evenodd" d="M13.9893 344L14 344.005V359.995L13.9904 360L0 352.005V351.995L13.9893 344Z" clip-rule="evenodd"/><path id="L15" fill="#D1031A" fill-rule="evenodd" d="M13.9893 328L14 328.005V343.995L13.9904 344L0 336.005V335.995L13.9893 328Z" clip-rule="evenodd"/><path id="L16" fill="#D1031A" fill-rule="evenodd" d="M13.9893 312L14 312.005V327.995L13.9904 328L0 320.005V319.995L13.9893 312Z" clip-rule="evenodd"/><path id="L17" fill="#D1031A" fill-rule="evenodd" d="M13.9893 296L14 296.005V311.995L13.9904 312L0 304.005V303.995L13.9893 296Z" clip-rule="evenodd"/><path id="L18" fill="#D1031A" fill-rule="evenodd" d="M13.9893 280L14 280.005V295.995L13.9904 296L0 288.005V287.995L13.9893 280Z" clip-rule="evenodd"/><path id="L19" fill="#F13834" fill-rule="evenodd" d="M13.9893 264L14 264.005V279.995L13.9904 280L0 272.005V271.995L13.9893 264Z" clip-rule="evenodd"/><path id="L20" fill="#FF7B74" fill-rule="evenodd" d="M13.9893 248L14 248.005V263.995L13.9904 264L0 256.005V255.995L13.9893 248Z" clip-rule="evenodd"/><path id="L21" fill="#FF7B74" fill-rule="evenodd" d="M13.9893 232L14 232.005V247.995L13.9904 248L0 240.005V239.995L13.9893 232Z" clip-rule="evenodd"/><path id="L22" fill="#D1031A" fill-rule="evenodd" d="M13.9893 216L14 216.005V231.995L13.9904 232L0 224.005V223.995L13.9893 216Z" clip-rule="evenodd"/><path id="L26" fill="#53A626" fill-rule="evenodd" d="M13.9893 152L14 152.005V167.995L13.9904 168L0 160.005V159.995L13.9893 152Z" clip-rule="evenodd"/><path id="R11" fill="#D1031A" fill-rule="evenodd" d="M0 416V400L14 408.001L0 416Z" clip-rule="evenodd"/><path id="R12" fill="#D1031A" fill-rule="evenodd" d="M0 400V384L14 392.001L0 400Z" clip-rule="evenodd"/><path id="R13" fill="#D1031A" fill-rule="evenodd" d="M0 384V368L14 376.001L0 384Z" clip-rule="evenodd"/><path id="R14" fill="#D1031A" fill-rule="evenodd" d="M0 368V352L14 360.001L0 368Z" clip-rule="evenodd"/><path id="R15" fill="#D1031A" fill-rule="evenodd" d="M0 352V336L14 344.001L0 352Z" clip-rule="evenodd"/><path id="R16" fill="#D1031A" fill-rule="evenodd" d="M0 336V320L14 328.001L0 336Z" clip-rule="evenodd"/><path id="R17" fill="#D1031A" fill-rule="evenodd" d="M0 320V304L14 312.001L0 320Z" clip-rule="evenodd"/><path id="R18" fill="#D1031A" fill-rule="evenodd" d="M0 304V288L14 296.001L0 304Z" clip-rule="evenodd"/><path id="R19" fill="#FF7B74" fill-rule="evenodd" d="M0 288V272L14 280.001L0 288Z" clip-rule="evenodd"/><path id="R20" fill="#FF7B74" fill-rule="evenodd" d="M0 272V256L14 264.001L0 272Z" clip-rule="evenodd"/><path id="R21" fill="#F13834" fill-rule="evenodd" d="M0 256V240L14 248.001L0 256Z" clip-rule="evenodd"/><path id="R22" fill="#D1031A" fill-rule="evenodd" d="M0 240V224L14 232.001L0 240Z" clip-rule="evenodd"/><path id="R23" fill="#D1031A" fill-rule="evenodd" d="M0 224V208L14 216.001L0 224Z" clip-rule="evenodd"/><path id="R27" fill="#53A626" fill-rule="evenodd" d="M0 160V144L14 152.001L0 160Z" clip-rule="evenodd"/></g></svg>