<svg xmlns="http://www.w3.org/2000/svg" width="14" height="568" fill="none" viewBox="0 0 14 568"><g id="column-13"><path id="L17" fill="#53A626" fill-rule="evenodd" d="M0.0106683 296L0 296.005V311.995L0.00960146 312L14 304.005V303.995L0.0106683 296Z" clip-rule="evenodd"/><path id="L18" fill="#B2D530" fill-rule="evenodd" d="M0.0106683 280L0 280.005V295.995L0.00960146 296L14 288.005V287.995L0.0106683 280Z" clip-rule="evenodd"/><path id="L19" fill="#DBF1C1" fill-rule="evenodd" d="M0.0106683 264L0 264.005V279.995L0.00960146 280L14 272.005V271.995L0.0106683 264Z" clip-rule="evenodd"/><path id="L20" fill="#B2D530" fill-rule="evenodd" d="M0.0106683 248L0 248.005V263.995L0.00960146 264L14 256.005V255.995L0.0106683 248Z" clip-rule="evenodd"/><path id="L21" fill="#B2D530" fill-rule="evenodd" d="M0.0106683 232L0 232.005V247.995L0.00960146 248L14 240.005V239.995L0.0106683 232Z" clip-rule="evenodd"/><path id="L23" fill="#1F4F22" fill-rule="evenodd" d="M0.0106683 200L0 200.005V215.995L0.00960146 216L14 208.005V207.995L0.0106683 200Z" clip-rule="evenodd"/><path id="L24" fill="#1F4F22" fill-rule="evenodd" d="M0.0106683 184L0 184.005V199.995L0.00960146 200L14 192.005V191.995L0.0106683 184Z" clip-rule="evenodd"/><path id="L25" fill="#1F4F22" fill-rule="evenodd" d="M0.0106683 168L0 168.005V183.995L0.00960146 184L14 176.005V175.995L0.0106683 168Z" clip-rule="evenodd"/><path id="L27" fill="#1F4F22" fill-rule="evenodd" d="M0.0106683 136L0 136.005V151.995L0.00960146 152L14 144.005V143.995L0.0106683 136Z" clip-rule="evenodd"/><path id="L28" fill="#1F4F22" fill-rule="evenodd" d="M0.0106683 120L0 120.005V135.995L0.00960146 136L14 128.005V127.995L0.0106683 120Z" clip-rule="evenodd"/><path id="R18" fill="#B2D530" fill-rule="evenodd" d="M14 304V288L0 296.001L14 304Z" clip-rule="evenodd"/><path id="R19" fill="#B2D530" fill-rule="evenodd" d="M14 288V272L0 280.001L14 288Z" clip-rule="evenodd"/><path id="R20" fill="#B2D530" fill-rule="evenodd" d="M14 272V256L0 264.001L14 272Z" clip-rule="evenodd"/><path id="R21" fill="#DBF1C1" fill-rule="evenodd" d="M14 256V240L0 248.001L14 256Z" clip-rule="evenodd"/><path id="R24" fill="#1F4F22" fill-rule="evenodd" d="M14 208V192L0 200.001L14 208Z" clip-rule="evenodd"/><path id="R25" fill="#1F4F22" fill-rule="evenodd" d="M14 192V176L0 184.001L14 192Z" clip-rule="evenodd"/><path id="R26" fill="#B2D530" fill-rule="evenodd" d="M14 176V160L0 168.001L14 176Z" clip-rule="evenodd"/><path id="R28" fill="#1F4F22" fill-rule="evenodd" d="M14 144V128L0 136.001L14 144Z" clip-rule="evenodd"/><path id="R29" fill="#B2D530" fill-rule="evenodd" d="M14 128V112L0 120.001L14 128Z" clip-rule="evenodd"/></g></svg>