<svg xmlns="http://www.w3.org/2000/svg" width="14" height="568" fill="none" viewBox="0 0 14 568"><g id="column-14"><path id="L18" fill="#B2D530" fill-rule="evenodd" d="M13.9893 280L14 280.005V295.995L13.9904 296L0 288.005V287.995L13.9893 280Z" clip-rule="evenodd"/><path id="L19" fill="#B2D530" fill-rule="evenodd" d="M13.9893 264L14 264.005V279.995L13.9904 280L0 272.005V271.995L13.9893 264Z" clip-rule="evenodd"/><path id="L20" fill="#B2D530" fill-rule="evenodd" d="M13.9893 248L14 248.005V263.995L13.9904 264L0 256.005V255.995L13.9893 248Z" clip-rule="evenodd"/><path id="L25" fill="#1F4F22" fill-rule="evenodd" d="M13.9893 168L14 168.005V183.995L13.9904 184L0 176.005V175.995L13.9893 168Z" clip-rule="evenodd"/><path id="L26" fill="#B2D530" fill-rule="evenodd" d="M13.9893 152L14 152.005V167.995L13.9904 168L0 160.005V159.995L13.9893 152Z" clip-rule="evenodd"/><path id="R18" fill="#53A626" fill-rule="evenodd" d="M0 304V288L14 296.001L0 304Z" clip-rule="evenodd"/><path id="R19" fill="#B2D530" fill-rule="evenodd" d="M0 288V272L14 280.001L0 288Z" clip-rule="evenodd"/><path id="R20" fill="#B2D530" fill-rule="evenodd" d="M0 272V256L14 264.001L0 272Z" clip-rule="evenodd"/><path id="R21" fill="#B2D530" fill-rule="evenodd" d="M0 256V240L14 248.001L0 256Z" clip-rule="evenodd"/><path id="R25" fill="#1F4F22" fill-rule="evenodd" d="M0 192V176L14 184.001L0 192Z" clip-rule="evenodd"/><path id="R26" fill="#1F4F22" fill-rule="evenodd" d="M0 176V160L14 168.001L0 176Z" clip-rule="evenodd"/></g></svg>