<svg xmlns="http://www.w3.org/2000/svg" width="14" height="568" fill="none" viewBox="0 0 14 568"><g id="column-6"><path id="L18" fill="#351117" fill-rule="evenodd" d="M13.9893 280L14 280.005V295.995L13.9904 296L0 288.005V287.995L13.9893 280Z" clip-rule="evenodd"/><path id="L19" fill="#58111A" fill-rule="evenodd" d="M13.9893 264L14 264.005V279.995L13.9904 280L0 272.005V271.995L13.9893 264Z" clip-rule="evenodd"/><path id="L20" fill="#58111A" fill-rule="evenodd" d="M13.9893 248L14 248.005V263.995L13.9904 264L0 256.005V255.995L13.9893 248Z" clip-rule="evenodd"/><path id="L21" fill="#E26B89" fill-rule="evenodd" d="M13.9893 232L14 232.005V247.995L13.9904 248L0 240.005V239.995L13.9893 232Z" clip-rule="evenodd"/><path id="L22" fill="#210C1F" fill-rule="evenodd" d="M13.9893 216L14 216.005V231.995L13.9904 232L0 224.005V223.995L13.9893 216Z" clip-rule="evenodd"/><path id="L23" fill="#210C1F" fill-rule="evenodd" d="M13.9893 200L14 200.005V215.995L13.9904 216L0 208.005V207.995L13.9893 200Z" clip-rule="evenodd"/><path id="L24" fill="#3D2A3D" fill-rule="evenodd" d="M13.9893 184L14 184.005V199.995L13.9904 200L0 192.005V191.995L13.9893 184Z" clip-rule="evenodd"/><path id="L25" fill="#210C1F" fill-rule="evenodd" d="M13.9893 168L14 168.005V183.995L13.9904 184L0 176.005V175.995L13.9893 168Z" clip-rule="evenodd"/><path id="L26" fill="#1F4F22" fill-rule="evenodd" d="M13.9893 152L14 152.005V167.995L13.9904 168L0 160.005V159.995L13.9893 152Z" clip-rule="evenodd"/><path id="L27" fill="#1F4F22" fill-rule="evenodd" d="M13.9893 136L14 136.005V151.995L13.9904 152L0 144.005V143.995L13.9893 136Z" clip-rule="evenodd"/><path id="L28" fill="#1F4F22" fill-rule="evenodd" d="M13.9893 120L14 120.005V135.995L13.9904 136L0 128.005V127.995L13.9893 120Z" clip-rule="evenodd"/><path id="L29" fill="#B2D530" fill-rule="evenodd" d="M13.9893 104L14 104.005V119.995L13.9904 120L0 112.005V111.995L13.9893 104Z" clip-rule="evenodd"/><path id="R18" fill="#351117" fill-rule="evenodd" d="M0 304V288L14 296.001L0 304Z" clip-rule="evenodd"/><path id="R19" fill="#58111A" fill-rule="evenodd" d="M0 288V272L14 280.001L0 288Z" clip-rule="evenodd"/><path id="R20" fill="#58111A" fill-rule="evenodd" d="M0 272V256L14 264.001L0 272Z" clip-rule="evenodd"/><path id="R21" fill="#58111A" fill-rule="evenodd" d="M0 256V240L14 248.001L0 256Z" clip-rule="evenodd"/><path id="R22" fill="#1F4F22" fill-rule="evenodd" d="M0 240V224L14 232.001L0 240Z" clip-rule="evenodd"/><path id="R23" fill="#210C1F" fill-rule="evenodd" d="M0 224V208L14 216.001L0 224Z" clip-rule="evenodd"/><path id="R24" fill="#3D2A3D" fill-rule="evenodd" d="M0 208V192L14 200.001L0 208Z" clip-rule="evenodd"/><path id="R25" fill="#210C1F" fill-rule="evenodd" d="M0 192V176L14 184.001L0 192Z" clip-rule="evenodd"/><path id="R26" fill="#1F4F22" fill-rule="evenodd" d="M0 176V160L14 168.001L0 176Z" clip-rule="evenodd"/><path id="R27" fill="#1F4F22" fill-rule="evenodd" d="M0 160V144L14 152.001L0 160Z" clip-rule="evenodd"/><path id="R28" fill="#1F4F22" fill-rule="evenodd" d="M0 144V128L14 136.001L0 144Z" clip-rule="evenodd"/><path id="R29" fill="#1F4F22" fill-rule="evenodd" d="M0 128V112L14 120.001L0 128Z" clip-rule="evenodd"/></g></svg>