<svg xmlns="http://www.w3.org/2000/svg" width="14" height="568" fill="none" viewBox="0 0 14 568"><g id="column-11"><path id="L15" fill="#58111A" fill-rule="evenodd" d="M0.0106683 328L0 328.005V343.995L0.00960146 344L14 336.005V335.995L0.0106683 328Z" clip-rule="evenodd"/><path id="L16" fill="#58111A" fill-rule="evenodd" d="M0.0106683 312L0 312.005V327.995L0.00960146 328L14 320.005V319.995L0.0106683 312Z" clip-rule="evenodd"/><path id="L17" fill="#7D0328" fill-rule="evenodd" d="M0.0106683 296L0 296.005V311.995L0.00960146 312L14 304.005V303.995L0.0106683 296Z" clip-rule="evenodd"/><path id="L18" fill="#7D0328" fill-rule="evenodd" d="M0.0106683 280L0 280.005V295.995L0.00960146 296L14 288.005V287.995L0.0106683 280Z" clip-rule="evenodd"/><path id="L19" fill="#58111A" fill-rule="evenodd" d="M0.0106683 264L0 264.005V279.995L0.00960146 280L14 272.005V271.995L0.0106683 264Z" clip-rule="evenodd"/><path id="L20" fill="#7D0328" fill-rule="evenodd" d="M0.0106683 248L0 248.005V263.995L0.00960146 264L14 256.005V255.995L0.0106683 248Z" clip-rule="evenodd"/><path id="L21" fill="#7D0328" fill-rule="evenodd" d="M0.0106683 232L0 232.005V247.995L0.00960146 248L14 240.005V239.995L0.0106683 232Z" clip-rule="evenodd"/><path id="L22" fill="#E26B89" fill-rule="evenodd" d="M0.0106683 216L0 216.005V231.995L0.00960146 232L14 224.005V223.995L0.0106683 216Z" clip-rule="evenodd"/><path id="L23" fill="#7D0328" fill-rule="evenodd" d="M0.0106683 200L0 200.005V215.995L0.00960146 216L14 208.005V207.995L0.0106683 200Z" clip-rule="evenodd"/><path id="L24" fill="#E26B89" fill-rule="evenodd" d="M0.0106683 184L0 184.005V199.995L0.00960146 200L14 192.005V191.995L0.0106683 184Z" clip-rule="evenodd"/><path id="L25" fill="#E26B89" fill-rule="evenodd" d="M0.0106683 168L0 168.005V183.995L0.00960146 184L14 176.005V175.995L0.0106683 168Z" clip-rule="evenodd"/><path id="L26" fill="#7D0328" fill-rule="evenodd" d="M0.0106683 152L0 152.005V167.995L0.00960146 168L14 160.005V159.995L0.0106683 152Z" clip-rule="evenodd"/><path id="R15" fill="#58111A" fill-rule="evenodd" d="M14 352V336L0 344.001L14 352Z" clip-rule="evenodd"/><path id="R16" fill="#7D0328" fill-rule="evenodd" d="M14 336V320L0 328.001L14 336Z" clip-rule="evenodd"/><path id="R17" fill="#7D0328" fill-rule="evenodd" d="M14 320V304L0 312.001L14 320Z" clip-rule="evenodd"/><path id="R18" fill="#7D0328" fill-rule="evenodd" d="M14 304V288L0 296.001L14 304Z" clip-rule="evenodd"/><path id="R19" fill="#7D0328" fill-rule="evenodd" d="M14 288V272L0 280.001L14 288Z" clip-rule="evenodd"/><path id="R20" fill="#7D0328" fill-rule="evenodd" d="M14 272V256L0 264.001L14 272Z" clip-rule="evenodd"/><path id="R21" fill="#E26B89" fill-rule="evenodd" d="M14 256V240L0 248.001L14 256Z" clip-rule="evenodd"/><path id="R22" fill="#7D0328" fill-rule="evenodd" d="M14 240V224L0 232.001L14 240Z" clip-rule="evenodd"/><path id="R23" fill="#7D0328" fill-rule="evenodd" d="M14 224V208L0 216.001L14 224Z" clip-rule="evenodd"/><path id="R24" fill="#7D0328" fill-rule="evenodd" d="M14 208V192L0 200.001L14 208Z" clip-rule="evenodd"/><path id="R25" fill="#7D0328" fill-rule="evenodd" d="M14 192V176L0 184.001L14 192Z" clip-rule="evenodd"/><path id="R26" fill="#7D0328" fill-rule="evenodd" d="M14 176V160L0 168.001L14 176Z" clip-rule="evenodd"/></g></svg>