<svg xmlns="http://www.w3.org/2000/svg" xmlns:xlink="http://www.w3.org/1999/xlink" width="14" height="568" version="1.1" viewBox="0 0 14 568"><title>Mushroom 16</title><desc>Created with Sketch.</desc><g id="Mushroom-16" fill="none" fill-rule="evenodd" stroke="none" stroke-width="1"><polygon id="L1" fill="#FFF" fill-opacity="0" points=".011 552 0 552.005 0 567.995 .01 568 14 560.005 14 559.995" transform="translate(7.000000, 560.000000) scale(-1, 1) translate(-7.000000, -560.000000)"/><polygon id="L2" fill="#FFF" fill-opacity="0" points=".011 536 0 536.005 0 551.995 .01 552 14 544.005 14 543.995" transform="translate(7.000000, 544.000000) scale(-1, 1) translate(-7.000000, -544.000000)"/><polygon id="L3" fill="#FFF" fill-opacity="0" points=".011 520 0 520.005 0 535.995 .01 536 14 528.005 14 527.995" transform="translate(7.000000, 528.000000) scale(-1, 1) translate(-7.000000, -528.000000)"/><polygon id="L4" fill="#FFF" fill-opacity="0" points=".011 504 0 504.005 0 519.995 .01 520 14 512.005 14 511.995" transform="translate(7.000000, 512.000000) scale(-1, 1) translate(-7.000000, -512.000000)"/><polygon id="L5" fill="#FFF" fill-opacity="0" points=".011 488 0 488.005 0 503.995 .01 504 14 496.005 14 495.995" transform="translate(7.000000, 496.000000) scale(-1, 1) translate(-7.000000, -496.000000)"/><polygon id="L6" fill="#FFF" fill-opacity="0" points=".011 472 0 472.005 0 487.995 .01 488 14 480.005 14 479.995" transform="translate(7.000000, 480.000000) scale(-1, 1) translate(-7.000000, -480.000000)"/><polygon id="L7" fill="#FFF" fill-opacity="0" points=".011 456 0 456.005 0 471.995 .01 472 14 464.005 14 463.995" transform="translate(7.000000, 464.000000) scale(-1, 1) translate(-7.000000, -464.000000)"/><polygon id="L8" fill="#FFF" fill-opacity="0" points=".011 440 0 440.005 0 455.995 .01 456 14 448.005 14 447.995" transform="translate(7.000000, 448.000000) scale(-1, 1) translate(-7.000000, -448.000000)"/><polygon id="L9" fill="#FFF" fill-opacity="0" points=".011 424 0 424.005 0 439.995 .01 440 14 432.005 14 431.995" transform="translate(7.000000, 432.000000) scale(-1, 1) translate(-7.000000, -432.000000)"/><polygon id="L10" fill="#FFF" fill-opacity="0" points=".011 408 0 408.005 0 423.995 .01 424 14 416.005 14 415.995" transform="translate(7.000000, 416.000000) scale(-1, 1) translate(-7.000000, -416.000000)"/><polygon id="L11" fill="#FFF" fill-opacity="0" points=".011 392 0 392.005 0 407.995 .01 408 14 400.005 14 399.995" transform="translate(7.000000, 400.000000) scale(-1, 1) translate(-7.000000, -400.000000)"/><polygon id="L12" fill="#FFF" fill-opacity="0" points=".011 376 0 376.005 0 391.995 .01 392 14 384.005 14 383.995" transform="translate(7.000000, 384.000000) scale(-1, 1) translate(-7.000000, -384.000000)"/><polygon id="L13" fill="#FFF" fill-opacity="0" points=".011 360 0 360.005 0 375.995 .01 376 14 368.005 14 367.995" transform="translate(7.000000, 368.000000) scale(-1, 1) translate(-7.000000, -368.000000)"/><polygon id="L14" fill="#FFF" fill-opacity="0" points=".011 344 0 344.005 0 359.995 .01 360 14 352.005 14 351.995" transform="translate(7.000000, 352.000000) scale(-1, 1) translate(-7.000000, -352.000000)"/><polygon id="L15" fill="#FFF" fill-opacity="0" points=".011 328 0 328.005 0 343.995 .01 344 14 336.005 14 335.995" transform="translate(7.000000, 336.000000) scale(-1, 1) translate(-7.000000, -336.000000)"/><polygon id="L16" fill="#FFF" fill-opacity="0" points=".011 312 0 312.005 0 327.995 .01 328 14 320.005 14 319.995" transform="translate(7.000000, 320.000000) scale(-1, 1) translate(-7.000000, -320.000000)"/><polygon id="L17" fill="#FFF" fill-opacity="0" points=".011 296 0 296.005 0 311.995 .01 312 14 304.005 14 303.995" transform="translate(7.000000, 304.000000) scale(-1, 1) translate(-7.000000, -304.000000)"/><polygon id="L18" fill="#B77F4C" points=".011 280 0 280.005 0 295.995 .01 296 14 288.005 14 287.995" transform="translate(7.000000, 288.000000) scale(-1, 1) translate(-7.000000, -288.000000)"/><polygon id="L19" fill="#B77F4C" points=".011 264 0 264.005 0 279.995 .01 280 14 272.005 14 271.995" transform="translate(7.000000, 272.000000) scale(-1, 1) translate(-7.000000, -272.000000)"/><polygon id="L20" fill="#FFF" fill-opacity="0" points=".011 248 0 248.005 0 263.995 .01 264 14 256.005 14 255.995" transform="translate(7.000000, 256.000000) scale(-1, 1) translate(-7.000000, -256.000000)"/><polygon id="L21" fill="#FFF" fill-opacity="0" points=".011 232 0 232.005 0 247.995 .01 248 14 240.005 14 239.995" transform="translate(7.000000, 240.000000) scale(-1, 1) translate(-7.000000, -240.000000)"/><polygon id="L22" fill="#FFF" fill-opacity="0" points=".011 216 0 216.005 0 231.995 .01 232 14 224.005 14 223.995" transform="translate(7.000000, 224.000000) scale(-1, 1) translate(-7.000000, -224.000000)"/><polygon id="L23" fill="#FFF" fill-opacity="0" points=".011 200 0 200.005 0 215.995 .01 216 14 208.005 14 207.995" transform="translate(7.000000, 208.000000) scale(-1, 1) translate(-7.000000, -208.000000)"/><polygon id="L24" fill="#FFF" fill-opacity="0" points=".011 184 0 184.005 0 199.995 .01 200 14 192.005 14 191.995" transform="translate(7.000000, 192.000000) scale(-1, 1) translate(-7.000000, -192.000000)"/><polygon id="L25" fill="#FFF" fill-opacity="0" points=".011 168 0 168.005 0 183.995 .01 184 14 176.005 14 175.995" transform="translate(7.000000, 176.000000) scale(-1, 1) translate(-7.000000, -176.000000)"/><polygon id="L26" fill="#FFF" fill-opacity="0" points=".011 152 0 152.005 0 167.995 .01 168 14 160.005 14 159.995" transform="translate(7.000000, 160.000000) scale(-1, 1) translate(-7.000000, -160.000000)"/><polygon id="L27" fill="#FFF" fill-opacity="0" points=".011 136 0 136.005 0 151.995 .01 152 14 144.005 14 143.995" transform="translate(7.000000, 144.000000) scale(-1, 1) translate(-7.000000, -144.000000)"/><polygon id="L28" fill="#FFF" fill-opacity="0" points=".011 120 0 120.005 0 135.995 .01 136 14 128.005 14 127.995" transform="translate(7.000000, 128.000000) scale(-1, 1) translate(-7.000000, -128.000000)"/><polygon id="L29" fill="#FFF" fill-opacity="0" points=".011 104 0 104.005 0 119.995 .01 120 14 112.005 14 111.995" transform="translate(7.000000, 112.000000) scale(-1, 1) translate(-7.000000, -112.000000)"/><polygon id="L30" fill="#FFF" fill-opacity="0" points=".011 88 0 88.005 0 103.995 .01 104 14 96.005 14 95.995" transform="translate(7.000000, 96.000000) scale(-1, 1) translate(-7.000000, -96.000000)"/><polygon id="L31" fill="#FFF" fill-opacity="0" points=".011 72 0 72.005 0 87.995 .01 88 14 80.005 14 79.995" transform="translate(7.000000, 80.000000) scale(-1, 1) translate(-7.000000, -80.000000)"/><polygon id="L32" fill="#FFF" fill-opacity="0" points=".011 56 0 56.005 0 71.995 .01 72 14 64.005 14 63.995" transform="translate(7.000000, 64.000000) scale(-1, 1) translate(-7.000000, -64.000000)"/><polygon id="L33" fill="#FFF" fill-opacity="0" points=".011 40 0 40.005 0 55.995 .01 56 14 48.005 14 47.995" transform="translate(7.000000, 48.000000) scale(-1, 1) translate(-7.000000, -48.000000)"/><polygon id="L34" fill="#FFF" fill-opacity="0" points=".011 24 0 24.005 0 39.995 .01 40 14 32.005 14 31.995" transform="translate(7.000000, 32.000000) scale(-1, 1) translate(-7.000000, -32.000000)"/><polygon id="L35" fill="#FFF" fill-opacity="0" points=".011 8 0 8.005 0 23.995 .01 24 14 16.005 14 15.995" transform="translate(7.000000, 16.000000) scale(-1, 1) translate(-7.000000, -16.000000)"/><polygon id="R2" fill="#FFF" fill-opacity="0" points="14 560 14 544 0 552.001" transform="translate(7.000000, 552.000000) scale(-1, 1) translate(-7.000000, -552.000000)"/><polygon id="R3" fill="#FFF" fill-opacity="0" points="14 544 14 528 0 536.001" transform="translate(7.000000, 536.000000) scale(-1, 1) translate(-7.000000, -536.000000)"/><polygon id="R4" fill="#FFF" fill-opacity="0" points="14 528 14 512 0 520.001" transform="translate(7.000000, 520.000000) scale(-1, 1) translate(-7.000000, -520.000000)"/><polygon id="R5" fill="#FFF" fill-opacity="0" points="14 512 14 496 0 504.001" transform="translate(7.000000, 504.000000) scale(-1, 1) translate(-7.000000, -504.000000)"/><polygon id="R6" fill="#FFF" fill-opacity="0" points="14 496 14 480 0 488.001" transform="translate(7.000000, 488.000000) scale(-1, 1) translate(-7.000000, -488.000000)"/><polygon id="R7" fill="#FFF" fill-opacity="0" points="14 480 14 464 0 472.001" transform="translate(7.000000, 472.000000) scale(-1, 1) translate(-7.000000, -472.000000)"/><polygon id="R8" fill="#FFF" fill-opacity="0" points="14 464 14 448 0 456.001" transform="translate(7.000000, 456.000000) scale(-1, 1) translate(-7.000000, -456.000000)"/><polygon id="R9" fill="#FFF" fill-opacity="0" points="14 448 14 432 0 440.001" transform="translate(7.000000, 440.000000) scale(-1, 1) translate(-7.000000, -440.000000)"/><polygon id="R10" fill="#FFF" fill-opacity="0" points="14 432 14 416 0 424.001" transform="translate(7.000000, 424.000000) scale(-1, 1) translate(-7.000000, -424.000000)"/><polygon id="R11" fill="#FFF" fill-opacity="0" points="14 416 14 400 0 408.001" transform="translate(7.000000, 408.000000) scale(-1, 1) translate(-7.000000, -408.000000)"/><polygon id="R12" fill="#FFF" fill-opacity="0" points="14 400 14 384 0 392.001" transform="translate(7.000000, 392.000000) scale(-1, 1) translate(-7.000000, -392.000000)"/><polygon id="R13" fill="#FFF" fill-opacity="0" points="14 384 14 368 0 376.001" transform="translate(7.000000, 376.000000) scale(-1, 1) translate(-7.000000, -376.000000)"/><polygon id="R14" fill="#FFF" fill-opacity="0" points="14 368 14 352 0 360.001" transform="translate(7.000000, 360.000000) scale(-1, 1) translate(-7.000000, -360.000000)"/><polygon id="R15" fill="#FFF" fill-opacity="0" points="14 352 14 336 0 344.001" transform="translate(7.000000, 344.000000) scale(-1, 1) translate(-7.000000, -344.000000)"/><polygon id="R16" fill="#FFF" fill-opacity="0" points="14 336 14 320 0 328.001" transform="translate(7.000000, 328.000000) scale(-1, 1) translate(-7.000000, -328.000000)"/><polygon id="R17" fill="#FFF" fill-opacity="0" points="14 320 14 304 0 312.001" transform="translate(7.000000, 312.000000) scale(-1, 1) translate(-7.000000, -312.000000)"/><polygon id="R18" fill="#B77F4C" points="14 304 14 288 0 296.001" transform="translate(7.000000, 296.000000) scale(-1, 1) translate(-7.000000, -296.000000)"/><polygon id="R19" fill="#8E5E32" points="14 288 14 272 0 280.001" transform="translate(7.000000, 280.000000) scale(-1, 1) translate(-7.000000, -280.000000)"/><polygon id="R20" fill="#8E5E32" points="14 272 14 256 0 264.001" transform="translate(7.000000, 264.000000) scale(-1, 1) translate(-7.000000, -264.000000)"/><polygon id="R21" fill="#FFF" fill-opacity="0" points="14 256 14 240 0 248.001" transform="translate(7.000000, 248.000000) scale(-1, 1) translate(-7.000000, -248.000000)"/><polygon id="R22" fill="#FFF" fill-opacity="0" points="14 240 14 224 0 232.001" transform="translate(7.000000, 232.000000) scale(-1, 1) translate(-7.000000, -232.000000)"/><polygon id="R23" fill="#FFF" fill-opacity="0" points="14 224 14 208 0 216.001" transform="translate(7.000000, 216.000000) scale(-1, 1) translate(-7.000000, -216.000000)"/><polygon id="R24" fill="#FFF" fill-opacity="0" points="14 208 14 192 0 200.001" transform="translate(7.000000, 200.000000) scale(-1, 1) translate(-7.000000, -200.000000)"/><polygon id="R25" fill="#FFF" fill-opacity="0" points="14 192 14 176 0 184.001" transform="translate(7.000000, 184.000000) scale(-1, 1) translate(-7.000000, -184.000000)"/><polygon id="R26" fill="#FFF" fill-opacity="0" points="14 176 14 160 0 168.001" transform="translate(7.000000, 168.000000) scale(-1, 1) translate(-7.000000, -168.000000)"/><polygon id="R27" fill="#FFF" fill-opacity="0" points="14 160 14 144 0 152.001" transform="translate(7.000000, 152.000000) scale(-1, 1) translate(-7.000000, -152.000000)"/><polygon id="R28" fill="#FFF" fill-opacity="0" points="14 144 14 128 0 136.001" transform="translate(7.000000, 136.000000) scale(-1, 1) translate(-7.000000, -136.000000)"/><polygon id="R29" fill="#FFF" fill-opacity="0" points="14 128 14 112 0 120.001" transform="translate(7.000000, 120.000000) scale(-1, 1) translate(-7.000000, -120.000000)"/><polygon id="R30" fill="#FFF" fill-opacity="0" points="14 112 14 96 0 104.001" transform="translate(7.000000, 104.000000) scale(-1, 1) translate(-7.000000, -104.000000)"/><polygon id="R31" fill="#FFF" fill-opacity="0" points="14 96 14 80 0 88.001" transform="translate(7.000000, 88.000000) scale(-1, 1) translate(-7.000000, -88.000000)"/><polygon id="R32" fill="#FFF" fill-opacity="0" points="14 80 14 64 0 72.001" transform="translate(7.000000, 72.000000) scale(-1, 1) translate(-7.000000, -72.000000)"/><polygon id="R33" fill="#FFF" fill-opacity="0" points="14 64 14 48 0 56.001" transform="translate(7.000000, 56.000000) scale(-1, 1) translate(-7.000000, -56.000000)"/><polygon id="R34" fill="#FFF" fill-opacity="0" points="14 48 14 32 0 40.001" transform="translate(7.000000, 40.000000) scale(-1, 1) translate(-7.000000, -40.000000)"/><polygon id="R35" fill="#FFF" fill-opacity="0" points="14 32 14 16 0 24.001" transform="translate(7.000000, 24.000000) scale(-1, 1) translate(-7.000000, -24.000000)"/><polygon id="R36" fill="#FFF" fill-opacity="0" points="14 16 14 0 0 8.001" transform="translate(7.000000, 8.000000) scale(-1, 1) translate(-7.000000, -8.000000)"/></g></svg>