<svg xmlns="http://www.w3.org/2000/svg" width="14" height="568" fill="none" viewBox="0 0 14 568"><g id="column-15"><path id="L13" fill="#FCFCFC" fill-rule="evenodd" d="M0.0106683 360L0 360.005V375.995L0.00960146 376L14 368.005V367.995L0.0106683 360Z" clip-rule="evenodd"/><path id="L14" fill="#FCFCFC" fill-rule="evenodd" d="M0.0106683 344L0 344.005V359.995L0.00960146 360L14 352.005V351.995L0.0106683 344Z" clip-rule="evenodd"/><path id="L15" fill="#FCFCFC" fill-rule="evenodd" d="M0.0106683 328L0 328.005V343.995L0.00960146 344L14 336.005V335.995L0.0106683 328Z" clip-rule="evenodd"/><path id="L16" fill="#0A2133" fill-rule="evenodd" d="M0.0106683 312L0 312.005V327.995L0.00960146 328L14 320.005V319.995L0.0106683 312Z" clip-rule="evenodd"/><path id="L17" fill="#FCFCFC" fill-rule="evenodd" d="M0.0106683 296L0 296.005V311.995L0.00960146 312L14 304.005V303.995L0.0106683 296Z" clip-rule="evenodd"/><path id="R14" fill="#FCFCFC" fill-rule="evenodd" d="M14 368V352L0 360.001L14 368Z" clip-rule="evenodd"/><path id="R15" fill="#FCFCFC" fill-rule="evenodd" d="M14 352V336L0 344.001L14 352Z" clip-rule="evenodd"/><path id="R16" fill="#FCFCFC" fill-rule="evenodd" d="M14 336V320L0 328.001L14 336Z" clip-rule="evenodd"/><path id="R17" fill="#FCFCFC" fill-rule="evenodd" d="M14 320V304L0 312.001L14 320Z" clip-rule="evenodd"/><path id="R18" fill="#FCFCFC" fill-rule="evenodd" d="M14 304V288L0 296.001L14 304Z" clip-rule="evenodd"/></g></svg>