<svg xmlns="http://www.w3.org/2000/svg" width="14" height="568" fill="none" viewBox="0 0 14 568"><g id="column-3"><path id="L10" fill="#F4EFE4" fill-rule="evenodd" d="M0.0106683 408L0 408.005V423.995L0.00960146 424L14 416.005V415.995L0.0106683 408Z" clip-rule="evenodd"/><path id="L11" fill="#F4EFE4" fill-rule="evenodd" d="M0.0106683 392L0 392.005V407.995L0.00960146 408L14 400.005V399.995L0.0106683 392Z" clip-rule="evenodd"/><path id="L14" fill="#F4EFE4" fill-rule="evenodd" d="M0.0106683 344L0 344.005V359.995L0.00960146 360L14 352.005V351.995L0.0106683 344Z" clip-rule="evenodd"/><path id="L15" fill="#F4EFE4" fill-rule="evenodd" d="M0.0106683 328L0 328.005V343.995L0.00960146 344L14 336.005V335.995L0.0106683 328Z" clip-rule="evenodd"/><path id="L16" fill="#F4EFE4" fill-rule="evenodd" d="M0.0106683 312L0 312.005V327.995L0.00960146 328L14 320.005V319.995L0.0106683 312Z" clip-rule="evenodd"/><path id="L17" fill="#F4EFE4" fill-rule="evenodd" d="M0.0106683 296L0 296.005V311.995L0.00960146 312L14 304.005V303.995L0.0106683 296Z" clip-rule="evenodd"/><path id="R11" fill="#124345" fill-rule="evenodd" d="M14 416V400L0 408.001L14 416Z" clip-rule="evenodd"/><path id="R12" fill="#FCFCFC" fill-rule="evenodd" d="M14 400V384L0 392.001L14 400Z" clip-rule="evenodd"/><path id="R14" fill="#F4EFE4" fill-rule="evenodd" d="M14 368V352L0 360.001L14 368Z" clip-rule="evenodd"/><path id="R15" fill="#F4EFE4" fill-rule="evenodd" d="M14 352V336L0 344.001L14 352Z" clip-rule="evenodd"/><path id="R16" fill="#F4EFE4" fill-rule="evenodd" d="M14 336V320L0 328.001L14 336Z" clip-rule="evenodd"/><path id="R17" fill="#F4EFE4" fill-rule="evenodd" d="M14 320V304L0 312.001L14 320Z" clip-rule="evenodd"/><path id="R18" fill="#F4EFE4" fill-rule="evenodd" d="M14 304V288L0 296.001L14 304Z" clip-rule="evenodd"/></g></svg>