<svg xmlns="http://www.w3.org/2000/svg" width="14" height="568" fill="none" viewBox="0 0 14 568"><g id="column-5"><path id="L10" fill="#F4EFE4" fill-rule="evenodd" d="M0.0106683 408L0 408.005V423.995L0.00960146 424L14 416.005V415.995L0.0106683 408Z" clip-rule="evenodd"/><path id="L11" fill="#FCFCFC" fill-rule="evenodd" d="M0.0106683 392L0 392.005V407.995L0.00960146 408L14 400.005V399.995L0.0106683 392Z" clip-rule="evenodd"/><path id="L12" fill="#124345" fill-rule="evenodd" d="M0.0106683 376L0 376.005V391.995L0.00960146 392L14 384.005V383.995L0.0106683 376Z" clip-rule="evenodd"/><path id="L13" fill="#F4EFE4" fill-rule="evenodd" d="M0.0106683 360L0 360.005V375.995L0.00960146 376L14 368.005V367.995L0.0106683 360Z" clip-rule="evenodd"/><path id="L14" fill="#F4EFE4" fill-rule="evenodd" d="M0.0106683 344L0 344.005V359.995L0.00960146 360L14 352.005V351.995L0.0106683 344Z" clip-rule="evenodd"/><path id="L15" fill="#F4EFE4" fill-rule="evenodd" d="M0.0106683 328L0 328.005V343.995L0.00960146 344L14 336.005V335.995L0.0106683 328Z" clip-rule="evenodd"/><path id="L16" fill="#F4EFE4" fill-rule="evenodd" d="M0.0106683 312L0 312.005V327.995L0.00960146 328L14 320.005V319.995L0.0106683 312Z" clip-rule="evenodd"/><path id="L17" fill="#F4EFE4" fill-rule="evenodd" d="M0.0106683 296L0 296.005V311.995L0.00960146 312L14 304.005V303.995L0.0106683 296Z" clip-rule="evenodd"/><path id="L18" fill="#F4EFE4" fill-rule="evenodd" d="M0.0106683 280L0 280.005V295.995L0.00960146 296L14 288.005V287.995L0.0106683 280Z" clip-rule="evenodd"/><path id="L19" fill="#F4EFE4" fill-rule="evenodd" d="M0.0106683 264L0 264.005V279.995L0.00960146 280L14 272.005V271.995L0.0106683 264Z" clip-rule="evenodd"/><path id="L20" fill="#F4EFE4" fill-rule="evenodd" d="M0.0106683 248L0 248.005V263.995L0.00960146 264L14 256.005V255.995L0.0106683 248Z" clip-rule="evenodd"/><path id="R10" fill="#F4EFE4" fill-rule="evenodd" d="M14 432V416L0 424.001L14 432Z" clip-rule="evenodd"/><path id="R11" fill="#0A2133" fill-rule="evenodd" d="M14 416V400L0 408.001L14 416Z" clip-rule="evenodd"/><path id="R12" fill="#0A2133" fill-rule="evenodd" d="M14 400V384L0 392.001L14 400Z" clip-rule="evenodd"/><path id="R13" fill="#FCFCFC" fill-rule="evenodd" d="M14 384V368L0 376.001L14 384Z" clip-rule="evenodd"/><path id="R14" fill="#F4EFE4" fill-rule="evenodd" d="M14 368V352L0 360.001L14 368Z" clip-rule="evenodd"/><path id="R15" fill="#F4EFE4" fill-rule="evenodd" d="M14 352V336L0 344.001L14 352Z" clip-rule="evenodd"/><path id="R16" fill="#F4EFE4" fill-rule="evenodd" d="M14 336V320L0 328.001L14 336Z" clip-rule="evenodd"/><path id="R17" fill="#F4EFE4" fill-rule="evenodd" d="M14 320V304L0 312.001L14 320Z" clip-rule="evenodd"/><path id="R18" fill="#F4EFE4" fill-rule="evenodd" d="M14 304V288L0 296.001L14 304Z" clip-rule="evenodd"/><path id="R19" fill="#0A2133" fill-rule="evenodd" d="M14 288V272L0 280.001L14 288Z" clip-rule="evenodd"/><path id="R20" fill="#F4EFE4" fill-rule="evenodd" d="M14 272V256L0 264.001L14 272Z" clip-rule="evenodd"/><path id="R21" fill="#124345" fill-rule="evenodd" d="M14 256V240L0 248.001L14 256Z" clip-rule="evenodd"/></g></svg>