<svg xmlns="http://www.w3.org/2000/svg" xmlns:xlink="http://www.w3.org/1999/xlink" width="14" height="568" version="1.1" viewBox="0 0 14 568"><title>Beet 14</title><desc>Created with Sketch.</desc><g id="Beet-14" fill="none" fill-rule="evenodd" stroke="none" stroke-width="1"><polygon id="L1" fill="#D8D8D8" fill-opacity="0" points=".011 552 0 552.005 0 567.995 .01 568 14 560.005 14 559.995" transform="translate(7.000000, 560.000000) scale(-1, 1) translate(-7.000000, -560.000000)"/><polygon id="L2" fill="#D8D8D8" fill-opacity="0" points=".011 536 0 536.005 0 551.995 .01 552 14 544.005 14 543.995" transform="translate(7.000000, 544.000000) scale(-1, 1) translate(-7.000000, -544.000000)"/><polygon id="L3" fill="#FFF" fill-opacity="0" points=".011 520 0 520.005 0 535.995 .01 536 14 528.005 14 527.995" transform="translate(7.000000, 528.000000) scale(-1, 1) translate(-7.000000, -528.000000)"/><polygon id="L4" fill="#FFF" fill-opacity="0" points=".011 504 0 504.005 0 519.995 .01 520 14 512.005 14 511.995" transform="translate(7.000000, 512.000000) scale(-1, 1) translate(-7.000000, -512.000000)"/><polygon id="L5" fill="#FFF" fill-opacity="0" points=".011 488 0 488.005 0 503.995 .01 504 14 496.005 14 495.995" transform="translate(7.000000, 496.000000) scale(-1, 1) translate(-7.000000, -496.000000)"/><polygon id="L6" fill="#FFF" fill-opacity="0" points=".011 472 0 472.005 0 487.995 .01 488 14 480.005 14 479.995" transform="translate(7.000000, 480.000000) scale(-1, 1) translate(-7.000000, -480.000000)"/><polygon id="L7" fill="#FFF" fill-opacity="0" points=".011 456 0 456.005 0 471.995 .01 472 14 464.005 14 463.995" transform="translate(7.000000, 464.000000) scale(-1, 1) translate(-7.000000, -464.000000)"/><polygon id="L8" fill="#FFF" fill-opacity="0" points=".011 440 0 440.005 0 455.995 .01 456 14 448.005 14 447.995" transform="translate(7.000000, 448.000000) scale(-1, 1) translate(-7.000000, -448.000000)"/><polygon id="L9" fill="#FFF" fill-opacity="0" points=".011 424 0 424.005 0 439.995 .01 440 14 432.005 14 431.995" transform="translate(7.000000, 432.000000) scale(-1, 1) translate(-7.000000, -432.000000)"/><polygon id="L10" fill="#FFF" fill-opacity="0" points=".011 408 0 408.005 0 423.995 .01 424 14 416.005 14 415.995" transform="translate(7.000000, 416.000000) scale(-1, 1) translate(-7.000000, -416.000000)"/><polygon id="L11" fill="#FFF" fill-opacity="0" points="13.989 392 14 392.005 14 407.995 13.99 408 0 400.005 0 399.995"/><polygon id="L12" fill="#FFF" fill-opacity="0" points=".011 376 0 376.005 0 391.995 .01 392 14 384.005 14 383.995" transform="translate(7.000000, 384.000000) scale(-1, 1) translate(-7.000000, -384.000000)"/><polygon id="L13" fill="#FFF" fill-opacity="0" points="13.989 360 14 360.005 14 375.995 13.99 376 0 368.005 0 367.995"/><polygon id="L14" fill="#FFF" fill-opacity="0" points="13.989 344 14 344.005 14 359.995 13.99 360 0 352.005 0 351.995"/><polygon id="L15" fill="#FFF" fill-opacity="0" points="13.989 328 14 328.005 14 343.995 13.99 344 0 336.005 0 335.995"/><polygon id="L16" fill="#FFF" fill-opacity="0" points="13.989 312 14 312.005 14 327.995 13.99 328 0 320.005 0 319.995"/><polygon id="L17" fill="#FFF" fill-opacity="0" points="13.989 296 14 296.005 14 311.995 13.99 312 0 304.005 0 303.995"/><polygon id="L18" fill="#FFF" fill-opacity="0" points="13.989 280 14 280.005 14 295.995 13.99 296 0 288.005 0 287.995"/><polygon id="L19" fill="#FFF" fill-opacity="0" points="13.989 264 14 264.005 14 279.995 13.99 280 0 272.005 0 271.995"/><polygon id="L20" fill="#FFF" fill-opacity="0" points=".011 248 0 248.005 0 263.995 .01 264 14 256.005 14 255.995" transform="translate(7.000000, 256.000000) scale(-1, 1) translate(-7.000000, -256.000000)"/><polygon id="L21" fill="#FFF" fill-opacity="0" points="13.989 232 14 232.005 14 247.995 13.99 248 0 240.005 0 239.995"/><polygon id="L22" fill="#53A626" points="13.989 216 14 216.005 14 231.995 13.99 232 0 224.005 0 223.995"/><polygon id="L23" fill="#B2D530" points="13.989 200 14 200.005 14 215.995 13.99 216 0 208.005 0 207.995"/><polygon id="L24" fill="#FFF" fill-opacity="0" points=".011 184 0 184.005 0 199.995 .01 200 14 192.005 14 191.995" transform="translate(7.000000, 192.000000) scale(-1, 1) translate(-7.000000, -192.000000)"/><polygon id="L25" fill="#FFF" fill-opacity="0" points="13.989 168 14 168.005 14 183.995 13.99 184 0 176.005 0 175.995"/><polygon id="L26" fill="#FFF" fill-opacity="0" points="13.989 152 14 152.005 14 167.995 13.99 168 0 160.005 0 159.995"/><polygon id="L27" fill="#FFF" fill-opacity="0" points=".011 136 0 136.005 0 151.995 .01 152 14 144.005 14 143.995" transform="translate(7.000000, 144.000000) scale(-1, 1) translate(-7.000000, -144.000000)"/><polygon id="L28" fill="#FFF" fill-opacity="0" points=".011 120 0 120.005 0 135.995 .01 136 14 128.005 14 127.995" transform="translate(7.000000, 128.000000) scale(-1, 1) translate(-7.000000, -128.000000)"/><polygon id="L29" fill="#FFF" fill-opacity="0" points=".011 104 0 104.005 0 119.995 .01 120 14 112.005 14 111.995" transform="translate(7.000000, 112.000000) scale(-1, 1) translate(-7.000000, -112.000000)"/><polygon id="L30" fill="#FFF" fill-opacity="0" points=".011 88 0 88.005 0 103.995 .01 104 14 96.005 14 95.995" transform="translate(7.000000, 96.000000) scale(-1, 1) translate(-7.000000, -96.000000)"/><polygon id="L31" fill="#FFF" fill-opacity="0" points=".011 72 0 72.005 0 87.995 .01 88 14 80.005 14 79.995" transform="translate(7.000000, 80.000000) scale(-1, 1) translate(-7.000000, -80.000000)"/><polygon id="L32" fill="#FFF" fill-opacity="0" points=".011 56 0 56.005 0 71.995 .01 72 14 64.005 14 63.995" transform="translate(7.000000, 64.000000) scale(-1, 1) translate(-7.000000, -64.000000)"/><polygon id="L33" fill="#FFF" fill-opacity="0" points=".011 40 0 40.005 0 55.995 .01 56 14 48.005 14 47.995" transform="translate(7.000000, 48.000000) scale(-1, 1) translate(-7.000000, -48.000000)"/><polygon id="L34" fill="#FFF" fill-opacity="0" points=".011 24 0 24.005 0 39.995 .01 40 14 32.005 14 31.995" transform="translate(7.000000, 32.000000) scale(-1, 1) translate(-7.000000, -32.000000)"/><polygon id="L35" fill="#D8D8D8" fill-opacity="0" points=".011 8 0 8.005 0 23.995 .01 24 14 16.005 14 15.995" transform="translate(7.000000, 16.000000) scale(-1, 1) translate(-7.000000, -16.000000)"/><polygon id="R2" fill="#D8D8D8" fill-opacity="0" points="14 560 14 544 0 552.001" transform="translate(7.000000, 552.000000) scale(-1, 1) translate(-7.000000, -552.000000)"/><polygon id="R3" fill="#D8D8D8" fill-opacity="0" points="14 544 14 528 0 536.001" transform="translate(7.000000, 536.000000) scale(-1, 1) translate(-7.000000, -536.000000)"/><polygon id="R4" fill="#FFF" fill-opacity="0" points="14 528 14 512 0 520.001" transform="translate(7.000000, 520.000000) scale(-1, 1) translate(-7.000000, -520.000000)"/><polygon id="R5" fill="#FFF" fill-opacity="0" points="14 512 14 496 0 504.001" transform="translate(7.000000, 504.000000) scale(-1, 1) translate(-7.000000, -504.000000)"/><polygon id="R6" fill="#FFF" fill-opacity="0" points="14 496 14 480 0 488.001" transform="translate(7.000000, 488.000000) scale(-1, 1) translate(-7.000000, -488.000000)"/><polygon id="R7" fill="#FFF" fill-opacity="0" points="14 480 14 464 0 472.001" transform="translate(7.000000, 472.000000) scale(-1, 1) translate(-7.000000, -472.000000)"/><polygon id="R8" fill="#FFF" fill-opacity="0" points="14 464 14 448 0 456.001" transform="translate(7.000000, 456.000000) scale(-1, 1) translate(-7.000000, -456.000000)"/><polygon id="R9" fill="#FFF" fill-opacity="0" points="14 448 14 432 0 440.001" transform="translate(7.000000, 440.000000) scale(-1, 1) translate(-7.000000, -440.000000)"/><polygon id="R10" fill="#FFF" fill-opacity="0" points="14 432 14 416 0 424.001" transform="translate(7.000000, 424.000000) scale(-1, 1) translate(-7.000000, -424.000000)"/><polygon id="R11" fill="#FFF" fill-opacity="0" points="0 416 0 400 14 408.001"/><polygon id="R12" fill="#FFF" fill-opacity="0" points="0 400 0 384 14 392.001"/><polygon id="R13" fill="#FFF" fill-opacity="0" points="0 384 0 368 14 376.001"/><polygon id="R14" fill="#FFF" fill-opacity="0" points="0 368 0 352 14 360.001"/><polygon id="R15" fill="#FFF" fill-opacity="0" points="0 352 0 336 14 344.001"/><polygon id="R16" fill="#FFF" fill-opacity="0" points="14 336 14 320 0 328.001" transform="translate(7.000000, 328.000000) scale(-1, 1) translate(-7.000000, -328.000000)"/><polygon id="R17" fill="#FFF" fill-opacity="0" points="14 320 14 304 0 312.001" transform="translate(7.000000, 312.000000) scale(-1, 1) translate(-7.000000, -312.000000)"/><polygon id="R18" fill="#FFF" fill-opacity="0" points="0 304 0 288 14 296.001"/><polygon id="R19" fill="#FFF" fill-opacity="0" points="0 288 0 272 14 280.001"/><polygon id="R20" fill="#FFF" fill-opacity="0" points="0 272 0 256 14 264.001"/><polygon id="R21" fill="#FFF" fill-opacity="0" points="0 256 0 240 14 248.001"/><polygon id="R22" fill="#FFF" fill-opacity="0" points="14 240 14 224 0 232.001" transform="translate(7.000000, 232.000000) scale(-1, 1) translate(-7.000000, -232.000000)"/><polygon id="R23" fill="#B2D530" points="0 224 0 208 14 216.001"/><polygon id="R24" fill="#FFF" fill-opacity="0" points="0 208 0 192 14 200.001"/><polygon id="R25" fill="#FFF" fill-opacity="0" points="0 192 0 176 14 184.001"/><polygon id="R26" fill="#FFF" fill-opacity="0" points="0 176 0 160 14 168.001"/><polygon id="R27" fill="#FFF" fill-opacity="0" points="14 160 14 144 0 152.001" transform="translate(7.000000, 152.000000) scale(-1, 1) translate(-7.000000, -152.000000)"/><polygon id="R28" fill="#FFF" fill-opacity="0" points="14 144 14 128 0 136.001" transform="translate(7.000000, 136.000000) scale(-1, 1) translate(-7.000000, -136.000000)"/><polygon id="R29" fill="#FFF" fill-opacity="0" points="14 128 14 112 0 120.001" transform="translate(7.000000, 120.000000) scale(-1, 1) translate(-7.000000, -120.000000)"/><polygon id="R30" fill="#FFF" fill-opacity="0" points="14 112 14 96 0 104.001" transform="translate(7.000000, 104.000000) scale(-1, 1) translate(-7.000000, -104.000000)"/><polygon id="R31" fill="#FFF" fill-opacity="0" points="14 96 14 80 0 88.001" transform="translate(7.000000, 88.000000) scale(-1, 1) translate(-7.000000, -88.000000)"/><polygon id="R32" fill="#FFF" fill-opacity="0" points="14 80 14 64 0 72.001" transform="translate(7.000000, 72.000000) scale(-1, 1) translate(-7.000000, -72.000000)"/><polygon id="R33" fill="#FFF" fill-opacity="0" points="14 64 14 48 0 56.001" transform="translate(7.000000, 56.000000) scale(-1, 1) translate(-7.000000, -56.000000)"/><polygon id="R34" fill="#FFF" fill-opacity="0" points="14 48 14 32 0 40.001" transform="translate(7.000000, 40.000000) scale(-1, 1) translate(-7.000000, -40.000000)"/><polygon id="R35" fill="#D8D8D8" fill-opacity="0" points="14 32 14 16 0 24.001" transform="translate(7.000000, 24.000000) scale(-1, 1) translate(-7.000000, -24.000000)"/><polygon id="R36" fill="#D8D8D8" fill-opacity="0" points="14 16 14 0 0 8.001" transform="translate(7.000000, 8.000000) scale(-1, 1) translate(-7.000000, -8.000000)"/></g></svg>