<svg xmlns="http://www.w3.org/2000/svg" width="14" height="568" fill="none" viewBox="0 0 14 568"><g id="column-14"><rect width="14" height="568" fill="#fff"/><path id="L7" fill="#B8A042" fill-rule="evenodd" d="M13.9893 456L14 456.005V471.995L13.9904 472L0 464.005V463.995L13.9893 456Z" clip-rule="evenodd"/><path id="L8" fill="#B8A042" fill-rule="evenodd" d="M13.9893 440L14 440.005V455.995L13.9904 456L0 448.005V447.995L13.9893 440Z" clip-rule="evenodd"/><path id="L9" fill="#FFD637" fill-rule="evenodd" d="M13.9893 424L14 424.005V439.995L13.9904 440L0 432.005V431.995L13.9893 424Z" clip-rule="evenodd"/><path id="L10" fill="#B8A042" fill-rule="evenodd" d="M13.9893 408L14 408.005V423.995L13.9904 424L0 416.005V415.995L13.9893 408Z" clip-rule="evenodd"/><path id="L11" fill="#FFD637" fill-rule="evenodd" d="M13.9893 392L14 392.005V407.995L13.9904 408L0 400.005V399.995L13.9893 392Z" clip-rule="evenodd"/><path id="L12" fill="#FFD637" fill-rule="evenodd" d="M13.9893 376L14 376.005V391.995L13.9904 392L0 384.005V383.995L13.9893 376Z" clip-rule="evenodd"/><path id="L13" fill="#FFD637" fill-rule="evenodd" d="M13.9893 360L14 360.005V375.995L13.9904 376L0 368.005V367.995L13.9893 360Z" clip-rule="evenodd"/><path id="R7" fill="#B8A042" fill-rule="evenodd" d="M0 480V464L14 472.001L0 480Z" clip-rule="evenodd"/><path id="R8" fill="#B8A042" fill-rule="evenodd" d="M0 464V448L14 456.001L0 464Z" clip-rule="evenodd"/><path id="R9" fill="#B8A042" fill-rule="evenodd" d="M0 448V432L14 440.001L0 448Z" clip-rule="evenodd"/><path id="R10" fill="#B8A042" fill-rule="evenodd" d="M0 432V416L14 424.001L0 432Z" clip-rule="evenodd"/><path id="R11" fill="#B8A042" fill-rule="evenodd" d="M0 416V400L14 408.001L0 416Z" clip-rule="evenodd"/><path id="R12" fill="#FFF6D0" fill-rule="evenodd" d="M0 400V384L14 392.001L0 400Z" clip-rule="evenodd"/><path id="R13" fill="#FFD637" fill-rule="evenodd" d="M0 384V368L14 376.001L0 384Z" clip-rule="evenodd"/><path id="R14" fill="#FFD637" fill-rule="evenodd" d="M0 368V352L14 360.001L0 368Z" clip-rule="evenodd"/></g></svg>